<svg width="150" height="156" viewBox="0 0 150 156" fill="none" xmlns="http://www.w3.org/2000/svg">
<rect width="150" height="150" rx="29" fill="#171717"/>
<path d="M80.5 43L129.43 127.75H31.5696L80.5 43Z" fill="#D9D9D9"/>
<path d="M31.5 46L57.9138 91.75H5.08623L31.5 46Z" fill="#D9D9D9"/>
<path d="M80.5 84L106.914 129.75H54.0862L80.5 84Z" fill="#171717"/>
<mask id="path-5-outside-1_10_12" maskUnits="userSpaceOnUse" x="24" y="21" width="122" height="56" fill="black">
<rect fill="white" x="24" y="21" width="122" height="56"/>
<path d="M41.208 25.92H49.976V72H39.544V38.592C37.176 40.064 33.528 41.472 28.92 41.792V32.768C34.744 32.256 40.376 30.272 41.208 25.92ZM99.8385 48.96C99.8385 63.68 91.5825 72.832 79.4865 72.832C67.3265 72.832 59.0705 63.68 59.0705 48.96C59.0705 34.176 67.3265 25.088 79.4865 25.088C91.5825 25.088 99.8385 34.176 99.8385 48.96ZM89.2785 48.96C89.2785 37.952 86.5265 33.92 79.4865 33.92C72.3825 33.92 69.6305 37.952 69.6305 48.96C69.6305 59.968 72.3825 64 79.4865 64C86.5265 64 89.2785 59.968 89.2785 48.96ZM118.875 63.168H141.211V72H105.243V63.616L127.643 44.224C130.139 42.048 130.331 41.28 130.331 38.592C130.331 35.392 128.667 33.984 123.867 33.984C119.067 33.984 117.083 35.584 116.251 41.984H105.755C107.035 31.68 113.499 25.088 123.867 25.088C133.083 25.088 140.891 29.696 140.891 38.592C140.891 44.352 137.307 47.296 133.403 50.624L118.875 63.168Z"/>
</mask>
<path d="M41.208 25.92H49.976V72H39.544V38.592C37.176 40.064 33.528 41.472 28.92 41.792V32.768C34.744 32.256 40.376 30.272 41.208 25.92ZM99.8385 48.96C99.8385 63.68 91.5825 72.832 79.4865 72.832C67.3265 72.832 59.0705 63.68 59.0705 48.96C59.0705 34.176 67.3265 25.088 79.4865 25.088C91.5825 25.088 99.8385 34.176 99.8385 48.96ZM89.2785 48.96C89.2785 37.952 86.5265 33.92 79.4865 33.92C72.3825 33.92 69.6305 37.952 69.6305 48.96C69.6305 59.968 72.3825 64 79.4865 64C86.5265 64 89.2785 59.968 89.2785 48.96ZM118.875 63.168H141.211V72H105.243V63.616L127.643 44.224C130.139 42.048 130.331 41.28 130.331 38.592C130.331 35.392 128.667 33.984 123.867 33.984C119.067 33.984 117.083 35.584 116.251 41.984H105.755C107.035 31.68 113.499 25.088 123.867 25.088C133.083 25.088 140.891 29.696 140.891 38.592C140.891 44.352 137.307 47.296 133.403 50.624L118.875 63.168Z" fill="#D9D9D9"/>
<path d="M41.208 25.92V21.92H37.9003L37.2792 25.1689L41.208 25.92ZM49.976 25.92H53.976V21.92H49.976V25.92ZM49.976 72V76H53.976V72H49.976ZM39.544 72H35.544V76H39.544V72ZM39.544 38.592H43.544V31.3957L37.4323 35.1949L39.544 38.592ZM28.92 41.792H24.92V46.0794L29.1971 45.7824L28.92 41.792ZM28.92 32.768L28.5697 28.7834L24.92 29.1042V32.768H28.92ZM41.208 29.92H49.976V21.92H41.208V29.92ZM45.976 25.92V72H53.976V25.92H45.976ZM49.976 68H39.544V76H49.976V68ZM43.544 72V38.592H35.544V72H43.544ZM37.4323 35.1949C35.6204 36.3212 32.6026 37.5266 28.6429 37.8016L29.1971 45.7824C34.4534 45.4174 38.7316 43.8068 41.6557 41.9891L37.4323 35.1949ZM32.92 41.792V32.768H24.92V41.792H32.92ZM29.2703 36.7526C32.4523 36.4729 35.8559 35.7757 38.7043 34.3719C41.5511 32.9689 44.3946 30.5535 45.1368 26.6711L37.2792 25.1689C37.1894 25.6385 36.8009 26.3911 35.1677 27.1961C33.5361 28.0002 31.2117 28.5511 28.5697 28.7834L29.2703 36.7526ZM95.8385 48.96C95.8385 55.5926 93.9829 60.5558 91.1752 63.7969C88.413 66.9855 84.4593 68.832 79.4865 68.832V76.832C86.6098 76.832 92.832 74.1025 97.2218 69.0351C101.566 64.0202 103.839 57.0474 103.839 48.96H95.8385ZM79.4865 68.832C74.4755 68.832 70.5062 66.9809 67.7389 63.7936C64.926 60.5537 63.0705 55.5927 63.0705 48.96H55.0705C55.0705 57.0473 57.343 64.0223 61.6981 69.0384C66.0988 74.1071 72.3375 76.832 79.4865 76.832V68.832ZM63.0705 48.96C63.0705 42.2917 64.9279 37.3339 67.7364 34.1053C70.4992 30.9293 74.4668 29.088 79.4865 29.088V21.088C72.3462 21.088 66.1058 23.7907 61.7006 28.8547C57.3411 33.8661 55.0705 40.8443 55.0705 48.96H63.0705ZM79.4865 29.088C84.4679 29.088 88.42 30.9248 91.1777 34.102C93.9811 37.3318 95.8385 42.2917 95.8385 48.96H103.839C103.839 40.8443 101.568 33.8682 97.2193 28.858C92.825 23.7952 86.6011 21.088 79.4865 21.088V29.088ZM93.2785 48.96C93.2785 43.339 92.6203 38.5438 90.3644 35.1139C87.812 31.2332 83.8367 29.92 79.4865 29.92V37.92C82.1763 37.92 83.097 38.6228 83.6806 39.5101C84.5607 40.8482 85.2785 43.573 85.2785 48.96H93.2785ZM79.4865 29.92C75.1177 29.92 71.1238 31.2245 68.5577 35.1061C66.288 38.5396 65.6305 43.3406 65.6305 48.96H73.6305C73.6305 43.5714 74.349 40.8524 75.2313 39.5179C75.8172 38.6315 76.7513 37.92 79.4865 37.92V29.92ZM65.6305 48.96C65.6305 54.5794 66.288 59.3804 68.5577 62.8139C71.1238 66.6955 75.1177 68 79.4865 68V60C76.7513 60 75.8172 59.2885 75.2313 58.4021C74.349 57.0676 73.6305 54.3486 73.6305 48.96H65.6305ZM79.4865 68C83.8367 68 87.812 66.6868 90.3644 62.8061C92.6203 59.3762 93.2785 54.581 93.2785 48.96H85.2785C85.2785 54.347 84.5607 57.0718 83.6806 58.4099C83.097 59.2972 82.1763 60 79.4865 60V68ZM118.875 63.168L116.261 60.1404L108.122 67.168H118.875V63.168ZM141.211 63.168H145.211V59.168H141.211V63.168ZM141.211 72V76H145.211V72H141.211ZM105.243 72H101.243V76H105.243V72ZM105.243 63.616L102.625 60.5918L101.243 61.7882V63.616H105.243ZM127.643 44.224L130.261 47.2482L130.272 47.2391L127.643 44.224ZM116.251 41.984V45.984H119.765L120.218 42.4997L116.251 41.984ZM105.755 41.984L101.786 41.4909L101.227 45.984H105.755V41.984ZM133.403 50.624L130.808 47.5799L130.798 47.5881L130.789 47.5964L133.403 50.624ZM118.875 67.168H141.211V59.168H118.875V67.168ZM137.211 63.168V72H145.211V63.168H137.211ZM141.211 68H105.243V76H141.211V68ZM109.243 72V63.616H101.243V72H109.243ZM107.861 66.6402L130.261 47.2482L125.025 41.1998L102.625 60.5918L107.861 66.6402ZM130.272 47.2391C131.551 46.1236 132.824 44.9005 133.571 43.2415C134.327 41.5603 134.331 39.8762 134.331 38.592H126.331C126.331 39.9958 126.239 40.0397 126.275 39.9585C126.302 39.8995 126.231 40.1484 125.014 41.2089L130.272 47.2391ZM134.331 38.592C134.331 36.3016 133.703 33.667 131.279 31.8729C129.182 30.3213 126.456 29.984 123.867 29.984V37.984C124.893 37.984 125.589 38.0612 126.046 38.1614C126.5 38.2607 126.589 38.3544 126.519 38.3031C126.407 38.2199 126.313 38.0843 126.278 37.9976C126.266 37.966 126.331 38.1149 126.331 38.592H134.331ZM123.867 29.984C121.154 29.984 118.093 30.4048 115.743 32.7556C113.547 34.9511 112.72 38.1186 112.284 41.4683L120.218 42.4997C120.614 39.4494 121.195 38.6169 121.399 38.4124C121.449 38.3632 121.78 37.984 123.867 37.984V29.984ZM116.251 37.984H105.755V45.984H116.251V37.984ZM109.724 42.4771C110.277 38.0285 111.9 34.73 114.167 32.5637C116.399 30.4302 119.573 29.088 123.867 29.088V21.088C117.793 21.088 112.551 23.0418 108.639 26.7803C104.762 30.486 102.513 35.6355 101.786 41.4909L109.724 42.4771ZM123.867 29.088C127.87 29.088 131.231 30.0969 133.478 31.7357C135.596 33.2809 136.891 35.4787 136.891 38.592H144.891C144.891 32.8093 142.282 28.2551 138.192 25.2723C134.231 22.3831 129.08 21.088 123.867 21.088V29.088ZM136.891 38.592C136.891 42.2538 134.928 44.0677 130.808 47.5799L135.998 53.6681C139.686 50.5243 144.891 46.4502 144.891 38.592H136.891ZM130.789 47.5964L116.261 60.1404L121.489 66.1956L136.017 53.6516L130.789 47.5964Z" fill="#171717" mask="url(#path-5-outside-1_10_12)"/>
</svg>
