<svg width="158" height="160" viewBox="0 0 158 160" fill="none" xmlns="http://www.w3.org/2000/svg">
<rect x="2" y="2" width="154" height="154" rx="31" fill="white" stroke="black" stroke-width="4"/>
<path d="M84.5 47L133.43 131.75H35.5696L84.5 47Z" fill="#171717"/>
<path d="M35.5 50L61.9138 95.75H9.08623L35.5 50Z" fill="#171717"/>
<path d="M84.5 88L110.914 133.75H58.0862L84.5 88Z" fill="white"/>
<mask id="path-5-outside-1_10_31" maskUnits="userSpaceOnUse" x="28" y="25" width="122" height="56" fill="black">
<rect fill="white" x="28" y="25" width="122" height="56"/>
<path d="M45.208 29.92H53.976V76H43.544V42.592C41.176 44.064 37.528 45.472 32.92 45.792V36.768C38.744 36.256 44.376 34.272 45.208 29.92ZM103.839 52.96C103.839 67.68 95.5825 76.832 83.4865 76.832C71.3265 76.832 63.0705 67.68 63.0705 52.96C63.0705 38.176 71.3265 29.088 83.4865 29.088C95.5825 29.088 103.839 38.176 103.839 52.96ZM93.2785 52.96C93.2785 41.952 90.5265 37.92 83.4865 37.92C76.3825 37.92 73.6305 41.952 73.6305 52.96C73.6305 63.968 76.3825 68 83.4865 68C90.5265 68 93.2785 63.968 93.2785 52.96ZM122.875 67.168H145.211V76H109.243V67.616L131.643 48.224C134.139 46.048 134.331 45.28 134.331 42.592C134.331 39.392 132.667 37.984 127.867 37.984C123.067 37.984 121.083 39.584 120.251 45.984H109.755C111.035 35.68 117.499 29.088 127.867 29.088C137.083 29.088 144.891 33.696 144.891 42.592C144.891 48.352 141.307 51.296 137.403 54.624L122.875 67.168Z"/>
</mask>
<path d="M45.208 29.92H53.976V76H43.544V42.592C41.176 44.064 37.528 45.472 32.92 45.792V36.768C38.744 36.256 44.376 34.272 45.208 29.92ZM103.839 52.96C103.839 67.68 95.5825 76.832 83.4865 76.832C71.3265 76.832 63.0705 67.68 63.0705 52.96C63.0705 38.176 71.3265 29.088 83.4865 29.088C95.5825 29.088 103.839 38.176 103.839 52.96ZM93.2785 52.96C93.2785 41.952 90.5265 37.92 83.4865 37.92C76.3825 37.92 73.6305 41.952 73.6305 52.96C73.6305 63.968 76.3825 68 83.4865 68C90.5265 68 93.2785 63.968 93.2785 52.96ZM122.875 67.168H145.211V76H109.243V67.616L131.643 48.224C134.139 46.048 134.331 45.28 134.331 42.592C134.331 39.392 132.667 37.984 127.867 37.984C123.067 37.984 121.083 39.584 120.251 45.984H109.755C111.035 35.68 117.499 29.088 127.867 29.088C137.083 29.088 144.891 33.696 144.891 42.592C144.891 48.352 141.307 51.296 137.403 54.624L122.875 67.168Z" fill="#171717"/>
<path d="M45.208 29.92V25.92H41.9003L41.2792 29.1689L45.208 29.92ZM53.976 29.92H57.976V25.92H53.976V29.92ZM53.976 76V80H57.976V76H53.976ZM43.544 76H39.544V80H43.544V76ZM43.544 42.592H47.544V35.3957L41.4323 39.1949L43.544 42.592ZM32.92 45.792H28.92V50.0794L33.1971 49.7824L32.92 45.792ZM32.92 36.768L32.5697 32.7834L28.92 33.1042V36.768H32.92ZM45.208 33.92H53.976V25.92H45.208V33.92ZM49.976 29.92V76H57.976V29.92H49.976ZM53.976 72H43.544V80H53.976V72ZM47.544 76V42.592H39.544V76H47.544ZM41.4323 39.1949C39.6204 40.3212 36.6026 41.5266 32.6429 41.8016L33.1971 49.7824C38.4534 49.4174 42.7316 47.8068 45.6557 45.9891L41.4323 39.1949ZM36.92 45.792V36.768H28.92V45.792H36.92ZM33.2703 40.7526C36.4523 40.4729 39.8559 39.7757 42.7043 38.3719C45.5511 36.9689 48.3946 34.5535 49.1368 30.6711L41.2792 29.1689C41.1894 29.6385 40.8009 30.3911 39.1677 31.1961C37.5361 32.0002 35.2117 32.5511 32.5697 32.7834L33.2703 40.7526ZM99.8385 52.96C99.8385 59.5926 97.9829 64.5558 95.1752 67.7969C92.413 70.9855 88.4593 72.832 83.4865 72.832V80.832C90.6098 80.832 96.832 78.1025 101.222 73.0351C105.566 68.0202 107.839 61.0474 107.839 52.96H99.8385ZM83.4865 72.832C78.4755 72.832 74.5062 70.9809 71.7389 67.7936C68.926 64.5537 67.0705 59.5927 67.0705 52.96H59.0705C59.0705 61.0473 61.343 68.0223 65.6981 73.0384C70.0988 78.1071 76.3375 80.832 83.4865 80.832V72.832ZM67.0705 52.96C67.0705 46.2917 68.9279 41.3339 71.7364 38.1053C74.4992 34.9293 78.4668 33.088 83.4865 33.088V25.088C76.3462 25.088 70.1058 27.7907 65.7006 32.8547C61.3411 37.8661 59.0705 44.8443 59.0705 52.96H67.0705ZM83.4865 33.088C88.4679 33.088 92.42 34.9248 95.1777 38.102C97.9811 41.3318 99.8385 46.2917 99.8385 52.96H107.839C107.839 44.8443 105.568 37.8682 101.219 32.858C96.825 27.7952 90.6011 25.088 83.4865 25.088V33.088ZM97.2785 52.96C97.2785 47.339 96.6203 42.5438 94.3644 39.1139C91.812 35.2332 87.8367 33.92 83.4865 33.92V41.92C86.1763 41.92 87.097 42.6228 87.6806 43.5101C88.5607 44.8482 89.2785 47.573 89.2785 52.96H97.2785ZM83.4865 33.92C79.1177 33.92 75.1238 35.2245 72.5577 39.1061C70.288 42.5396 69.6305 47.3406 69.6305 52.96H77.6305C77.6305 47.5714 78.349 44.8524 79.2313 43.5179C79.8172 42.6315 80.7513 41.92 83.4865 41.92V33.92ZM69.6305 52.96C69.6305 58.5794 70.288 63.3804 72.5577 66.8139C75.1238 70.6955 79.1177 72 83.4865 72V64C80.7513 64 79.8172 63.2885 79.2313 62.4021C78.349 61.0676 77.6305 58.3486 77.6305 52.96H69.6305ZM83.4865 72C87.8367 72 91.812 70.6868 94.3644 66.8061C96.6203 63.3762 97.2785 58.581 97.2785 52.96H89.2785C89.2785 58.347 88.5607 61.0718 87.6806 62.4099C87.097 63.2972 86.1763 64 83.4865 64V72ZM122.875 67.168L120.261 64.1404L112.122 71.168H122.875V67.168ZM145.211 67.168H149.211V63.168H145.211V67.168ZM145.211 76V80H149.211V76H145.211ZM109.243 76H105.243V80H109.243V76ZM109.243 67.616L106.625 64.5918L105.243 65.7882V67.616H109.243ZM131.643 48.224L134.261 51.2482L134.272 51.2391L131.643 48.224ZM120.251 45.984V49.984H123.765L124.218 46.4997L120.251 45.984ZM109.755 45.984L105.786 45.4909L105.227 49.984H109.755V45.984ZM137.403 54.624L134.808 51.5799L134.798 51.5881L134.789 51.5964L137.403 54.624ZM122.875 71.168H145.211V63.168H122.875V71.168ZM141.211 67.168V76H149.211V67.168H141.211ZM145.211 72H109.243V80H145.211V72ZM113.243 76V67.616H105.243V76H113.243ZM111.861 70.6402L134.261 51.2482L129.025 45.1998L106.625 64.5918L111.861 70.6402ZM134.272 51.2391C135.551 50.1236 136.824 48.9005 137.571 47.2415C138.327 45.5603 138.331 43.8762 138.331 42.592H130.331C130.331 43.9958 130.239 44.0397 130.275 43.9585C130.302 43.8995 130.231 44.1484 129.014 45.2089L134.272 51.2391ZM138.331 42.592C138.331 40.3016 137.703 37.667 135.279 35.8729C133.182 34.3213 130.456 33.984 127.867 33.984V41.984C128.893 41.984 129.589 42.0612 130.046 42.1614C130.5 42.2607 130.589 42.3544 130.519 42.3031C130.407 42.2199 130.313 42.0843 130.278 41.9976C130.266 41.966 130.331 42.1149 130.331 42.592H138.331ZM127.867 33.984C125.154 33.984 122.093 34.4048 119.743 36.7556C117.547 38.9511 116.72 42.1186 116.284 45.4683L124.218 46.4997C124.614 43.4494 125.195 42.6169 125.399 42.4124C125.449 42.3632 125.78 41.984 127.867 41.984V33.984ZM120.251 41.984H109.755V49.984H120.251V41.984ZM113.724 46.4771C114.277 42.0285 115.9 38.73 118.167 36.5637C120.399 34.4302 123.573 33.088 127.867 33.088V25.088C121.793 25.088 116.551 27.0418 112.639 30.7803C108.762 34.486 106.513 39.6355 105.786 45.4909L113.724 46.4771ZM127.867 33.088C131.87 33.088 135.231 34.0969 137.478 35.7357C139.596 37.2809 140.891 39.4787 140.891 42.592H148.891C148.891 36.8093 146.282 32.2551 142.192 29.2723C138.231 26.3831 133.08 25.088 127.867 25.088V33.088ZM140.891 42.592C140.891 46.2538 138.928 48.0677 134.808 51.5799L139.998 57.6681C143.686 54.5243 148.891 50.4502 148.891 42.592H140.891ZM134.789 51.5964L120.261 64.1404L125.489 70.1956L140.017 57.6516L134.789 51.5964Z" fill="white" mask="url(#path-5-outside-1_10_31)"/>
</svg>
